<svg width="64" height="64" viewBox="0 0 64 64" fill="none" xmlns="http://www.w3.org/2000/svg">
<path d="M59.4475 20.68C57.3435 18.3204 54.5026 16.7427 51.3875 16.2037C50.3981 12.4144 48.2622 9.02324 45.272 6.49414C42.2817 3.96504 38.5832 2.42151 34.6822 2.07468C30.7812 1.72786 26.8683 2.59468 23.4788 4.55658C20.0893 6.51847 17.3886 9.47963 15.7462 13.035C15.4975 13.0117 15.2487 13 15 13C12.879 13.0024 10.8455 13.846 9.34577 15.3458C7.846 16.8455 7.00238 18.879 7 21C7 21.1962 7.0075 21.395 7.0225 21.5925C4.72997 22.9096 2.93656 24.947 1.92083 27.3881C0.9051 29.8292 0.723905 32.5373 1.40539 35.092C2.08687 37.6466 3.59289 39.9047 5.68952 41.5155C7.78614 43.1263 10.356 43.9997 13 44H28V61C28 61.2652 28.1054 61.5196 28.2929 61.7071C28.4804 61.8946 28.7348 62 29 62H35C35.2652 62 35.5196 61.8946 35.7071 61.7071C35.8946 61.5196 36 61.2652 36 61V44H49C51.7011 44.0001 54.3446 43.2188 56.6117 41.7504C58.8788 40.2819 60.6727 38.189 61.777 35.7239C62.8814 33.2589 63.2491 30.527 62.8357 27.8576C62.4224 25.1883 61.2457 22.6956 59.4475 20.68V20.68ZM35 37C34.7348 37 34.4804 37.1053 34.2929 37.2929C34.1054 37.4804 34 37.7348 34 38V60H30V38C30 37.7348 29.8946 37.4804 29.7071 37.2929C29.5196 37.1053 29.2652 37 29 37H26.08L32 29.6012L37.92 37H35ZM49 42H36V39H40C40.1885 39.0001 40.3731 38.947 40.5327 38.8467C40.6922 38.7464 40.8202 38.6031 40.9019 38.4333C40.9835 38.2634 41.0155 38.074 40.9942 37.8867C40.9728 37.6995 40.899 37.5221 40.7812 37.375L32.7812 27.375C32.6874 27.258 32.5685 27.1635 32.4333 27.0986C32.2981 27.0337 32.15 27 32 27C31.85 27 31.7019 27.0337 31.5667 27.0986C31.4315 27.1635 31.3126 27.258 31.2187 27.375L23.2187 37.375C23.101 37.5221 23.0271 37.6995 23.0058 37.8867C22.9845 38.074 23.0165 38.2634 23.0981 38.4333C23.1798 38.6031 23.3078 38.7464 23.4673 38.8467C23.6269 38.947 23.8115 39.0001 24 39H28V42H13C10.7458 41.9997 8.55782 41.2378 6.7909 39.838C5.02399 38.4382 3.78177 36.4826 3.26571 34.2883C2.74965 32.0939 2.99002 29.7896 3.94784 27.749C4.90565 25.7084 6.52473 24.0512 8.5425 23.0462C8.73415 22.9507 8.89005 22.7961 8.98726 22.6053C9.08447 22.4144 9.11786 22.1975 9.0825 21.9862C8.93841 21.1267 8.98347 20.246 9.21455 19.4056C9.44563 18.5652 9.85717 17.7854 10.4205 17.1203C10.9838 16.4552 11.6854 15.921 12.4763 15.5548C13.2672 15.1886 14.1284 14.9993 15 15C15.3911 15.0004 15.7812 15.0385 16.165 15.1137C16.3916 15.1581 16.6265 15.1228 16.83 15.0136C17.0335 14.9045 17.1929 14.7283 17.2812 14.515C18.6617 11.172 21.0721 8.35623 24.1623 6.47677C27.2524 4.59732 30.8613 3.75209 34.4647 4.06388C38.068 4.37567 41.4781 5.82824 44.1995 8.21055C46.9208 10.5929 48.8118 13.7808 49.5975 17.3112C49.6423 17.5133 49.7488 17.6966 49.9021 17.8356C50.0555 17.9746 50.2482 18.0626 50.4537 18.0875C53.4892 18.4561 56.2695 19.9696 58.2268 22.3189C60.1841 24.6682 61.1707 27.676 60.9852 30.7282C60.7996 33.7803 59.4559 36.6465 57.2284 38.7414C55.001 40.8363 52.0578 42.0018 49 42V42Z" fill="url(#paint0_linear)"/>
<defs>
<linearGradient id="paint0_linear" x1="-2.06963" y1="63.8104" x2="62.6946" y2="-0.953752" gradientUnits="userSpaceOnUse">
<stop stop-color="#003F8A"/>
<stop offset="0.518" stop-color="#00D7DF"/>
<stop offset="1" stop-color="#006DF0"/>
</linearGradient>
</defs>
</svg>
